<?xml version="1.0" encoding="utf-8"?>
<!-- Generator: Adobe Illustrator 25.2.1, SVG Export Plug-In . SVG Version: 6.00 Build 0)  -->
<svg version="1.1" id="Layer_1" xmlns="http://www.w3.org/2000/svg" xmlns:xlink="http://www.w3.org/1999/xlink" x="0px" y="0px"
	 viewBox="0 0 743 466" style="enable-background:new 0 0 743 466;" xml:space="preserve">
<style type="text/css">
	.st0{clip-path:url(#SVGID_2_);fill:#247F5D;}
	.st1{clip-path:url(#SVGID_2_);}
	.st2{fill:#2B2B2A;}
	.st3{font-family:'MyriadPro-Regular';}
	.st4{font-size:15.0381px;}
	.st5{letter-spacing:3;}
	.st6{letter-spacing:2;}
	.st7{letter-spacing:4;}
	.st8{clip-path:url(#SVGID_2_);fill:#CA1643;}
</style>
<g>
	<defs>
		<rect id="SVGID_1_" x="0.03" y="-0.33" width="742.7" height="466.6"/>
	</defs>
	<clipPath id="SVGID_2_">
		<use xlink:href="#SVGID_1_"  style="overflow:visible;"/>
	</clipPath>
	<path class="st0" d="M518.64,391.79c2.22,0,4.02-1.8,4.02-4.02c0-2.22-1.8-4.02-4.02-4.02c-2.22,0-4.02,1.8-4.02,4.02
		C514.62,389.99,516.42,391.79,518.64,391.79"/>
	<path class="st0" d="M571.8,391.79c2.22,0,4.02-1.8,4.02-4.02c0-2.22-1.8-4.02-4.02-4.02c-2.22,0-4.02,1.8-4.02,4.02
		C567.77,389.99,569.57,391.79,571.8,391.79"/>
	<path class="st0" d="M610.08,391.79c2.22,0,4.02-1.8,4.02-4.02c0-2.22-1.8-4.02-4.02-4.02c-2.22,0-4.02,1.8-4.02,4.02
		C606.06,389.99,607.86,391.79,610.08,391.79"/>
	<path class="st0" d="M678.84,392.52c2.22,0,4.02-1.8,4.02-4.02c0-2.22-1.8-4.02-4.02-4.02c-2.22,0-4.02,1.8-4.02,4.02
		C674.82,390.72,676.62,392.52,678.84,392.52"/>
	<path class="st0" d="M689.57,401.67c2.22,0,4.02-1.8,4.02-4.02c0-2.22-1.8-4.02-4.02-4.02c-2.22,0-4.02,1.8-4.02,4.02
		C685.55,399.87,687.35,401.67,689.57,401.67"/>
	<path class="st0" d="M707.8,397.22c2.22,0,4.02-1.8,4.02-4.02c0-2.22-1.8-4.02-4.02-4.02c-2.22,0-4.02,1.8-4.02,4.02
		C703.77,395.42,705.58,397.22,707.8,397.22"/>
	<path class="st0" d="M692.25,416.97c2.22,0,4.02-1.8,4.02-4.02c0-2.22-1.8-4.02-4.02-4.02c-2.22,0-4.02,1.8-4.02,4.02
		C688.23,415.17,690.03,416.97,692.25,416.97"/>
	<path class="st0" d="M692.98,439.22c2.22,0,4.02-1.8,4.02-4.02c0-2.22-1.8-4.02-4.02-4.02c-2.22,0-4.02,1.8-4.02,4.02
		C688.96,437.42,690.76,439.22,692.98,439.22"/>
	<path class="st0" d="M702.62,423.49c2.22,0,4.02-1.8,4.02-4.02c0-2.22-1.8-4.02-4.02-4.02c-2.22,0-4.02,1.8-4.02,4.02
		C698.59,421.69,700.39,423.49,702.62,423.49"/>
	<path class="st0" d="M701.03,419.41c2.22,0,4.02-1.8,4.02-4.02c0-2.22-1.8-4.02-4.02-4.02c-2.22,0-4.02,1.8-4.02,4.02
		C697.01,417.61,698.81,419.41,701.03,419.41"/>
	<path class="st0" d="M618.86,412.52c2.22,0,4.02-1.8,4.02-4.02c0-2.22-1.8-4.02-4.02-4.02c-2.22,0-4.02,1.8-4.02,4.02
		C614.83,410.72,616.63,412.52,618.86,412.52"/>
	<path class="st0" d="M630.93,422.39c2.22,0,4.02-1.8,4.02-4.02c0-2.22-1.8-4.02-4.02-4.02c-2.22,0-4.02,1.8-4.02,4.02
		C626.9,420.59,628.7,422.39,630.93,422.39"/>
	<path class="st0" d="M632.63,444.22c2.22,0,4.02-1.8,4.02-4.02c0-2.22-1.8-4.02-4.02-4.02c-2.22,0-4.02,1.8-4.02,4.02
		C628.61,442.42,630.41,444.22,632.63,444.22"/>
	<path class="st0" d="M629.34,437.63c2.22,0,4.02-1.8,4.02-4.02c0-2.22-1.8-4.02-4.02-4.02c-2.22,0-4.02,1.8-4.02,4.02
		C625.32,435.83,627.12,437.63,629.34,437.63"/>
	<path class="st0" d="M652.38,391.73c2.22,0,4.02-1.8,4.02-4.02c0-2.22-1.8-4.02-4.02-4.02c-2.22,0-4.02,1.8-4.02,4.02
		C648.36,389.93,650.16,391.73,652.38,391.73"/>
	<path class="st0" d="M646.53,407.15c2.22,0,4.02-1.8,4.02-4.02c0-2.22-1.8-4.02-4.02-4.02c-2.22,0-4.02,1.8-4.02,4.02
		C642.51,405.35,644.31,407.15,646.53,407.15"/>
	<path class="st0" d="M649.34,421.18c2.22,0,4.02-1.8,4.02-4.02c0-2.22-1.8-4.02-4.02-4.02c-2.22,0-4.02,1.8-4.02,4.02
		C645.31,419.37,647.11,421.18,649.34,421.18"/>
	<path class="st0" d="M639.83,423.49c2.22,0,4.02-1.8,4.02-4.02c0-2.22-1.8-4.02-4.02-4.02c-2.22,0-4.02,1.8-4.02,4.02
		C635.8,421.69,637.6,423.49,639.83,423.49"/>
	<path class="st0" d="M571.8,423.25c2.22,0,4.02-1.8,4.02-4.02c0-2.22-1.8-4.02-4.02-4.02c-2.22,0-4.02,1.8-4.02,4.02
		C567.77,421.45,569.57,423.25,571.8,423.25"/>
	<path class="st0" d="M571.98,438.37c2.22,0,4.02-1.8,4.02-4.02s-1.8-4.02-4.02-4.02c-2.22,0-4.02,1.8-4.02,4.02
		S569.76,438.37,571.98,438.37"/>
	<path class="st0" d="M584.6,438.12c2.22,0,4.02-1.8,4.02-4.02c0-2.22-1.8-4.02-4.02-4.02c-2.22,0-4.02,1.8-4.02,4.02
		C580.57,436.32,582.38,438.12,584.6,438.12"/>
	<path class="st0" d="M584.6,395.82c2.22,0,4.02-1.8,4.02-4.02c0-2.22-1.8-4.02-4.02-4.02c-2.22,0-4.02,1.8-4.02,4.02
		C580.57,394.02,582.38,395.82,584.6,395.82"/>
	<path class="st0" d="M575.33,405.81c2.22,0,4.02-1.8,4.02-4.02c0-2.22-1.8-4.02-4.02-4.02c-2.22,0-4.02,1.8-4.02,4.02
		C571.31,404.01,573.11,405.81,575.33,405.81"/>
	<path class="st0" d="M618,399.72c2.22,0,4.02-1.8,4.02-4.02c0-2.22-1.8-4.02-4.02-4.02c-2.22,0-4.02,1.8-4.02,4.02
		C613.98,397.92,615.78,399.72,618,399.72"/>
	<path class="st0" d="M587.16,419.22c2.22,0,4.02-1.8,4.02-4.02c0-2.22-1.8-4.02-4.02-4.02c-2.22,0-4.02,1.8-4.02,4.02
		C583.13,417.42,584.94,419.22,587.16,419.22"/>
	<path class="st0" d="M597.28,421.18c2.22,0,4.02-1.8,4.02-4.02c0-2.22-1.8-4.02-4.02-4.02c-2.22,0-4.02,1.8-4.02,4.02
		C593.25,419.37,595.05,421.18,597.28,421.18"/>
	<path class="st0" d="M599.29,444.04c2.22,0,4.02-1.8,4.02-4.02c0-2.22-1.8-4.02-4.02-4.02c-2.22,0-4.02,1.8-4.02,4.02
		C595.27,442.23,597.07,444.04,599.29,444.04"/>
	<path class="st0" d="M527.05,404.72c2.22,0,4.02-1.8,4.02-4.02c0-2.22-1.8-4.02-4.02-4.02c-2.22,0-4.02,1.8-4.02,4.02
		C523.03,402.92,524.83,404.72,527.05,404.72"/>
	<path class="st0" d="M523.76,402.03c2.22,0,4.02-1.8,4.02-4.02c0-2.22-1.8-4.02-4.02-4.02c-2.22,0-4.02,1.8-4.02,4.02
		C519.74,400.23,521.54,402.03,523.76,402.03"/>
	<path class="st0" d="M521.44,420.44c2.22,0,4.02-1.8,4.02-4.02c0-2.22-1.8-4.02-4.02-4.02c-2.22,0-4.02,1.8-4.02,4.02
		C517.42,418.64,519.22,420.44,521.44,420.44"/>
	<path class="st0" d="M544.97,437.63c2.22,0,4.02-1.8,4.02-4.02c0-2.22-1.8-4.02-4.02-4.02c-2.22,0-4.02,1.8-4.02,4.02
		C540.95,435.83,542.75,437.63,544.97,437.63"/>
	<path class="st0" d="M552.03,430.9c2.79,0,5.04-2.26,5.04-5.04c0-2.79-2.26-5.05-5.04-5.05c-2.79,0-5.05,2.26-5.05,5.05
		C546.99,428.64,549.24,430.9,552.03,430.9"/>
	<path class="st0" d="M543.5,422.55c2.79,0,5.04-2.26,5.04-5.04c0-2.79-2.26-5.05-5.04-5.05c-2.79,0-5.05,2.26-5.05,5.05
		C538.45,420.29,540.71,422.55,543.5,422.55"/>
	<path class="st0" d="M531.56,396.67c2.22,0,4.02-1.8,4.02-4.02c0-2.22-1.8-4.02-4.02-4.02c-2.22,0-4.02,1.8-4.02,4.02
		C527.54,394.87,529.34,396.67,531.56,396.67"/>
	<path class="st0" d="M529,373.02c2.22,0,4.02-1.8,4.02-4.02c0-2.22-1.8-4.02-4.02-4.02c-2.22,0-4.02,1.8-4.02,4.02
		C524.98,371.22,526.78,373.02,529,373.02"/>
	<path class="st0" d="M668.23,408.5c0,2.22,1.8,4.02,4.02,4.02c2.22,0,4.02-1.8,4.02-4.02c0-2.22-1.8-4.02-4.02-4.02
		C670.04,404.47,668.23,406.27,668.23,408.5"/>
	<path class="st0" d="M736.75,372.47c-1.94,1.08-2.65,3.53-1.57,5.47c1.08,1.94,3.53,2.65,5.47,1.57c1.94-1.08,2.65-3.53,1.57-5.47
		C741.15,372.09,738.7,371.39,736.75,372.47"/>
	<path class="st0" d="M540.46,392.89c2.22,0,4.02-1.8,4.02-4.02c0-2.22-1.8-4.02-4.02-4.02c-2.22,0-4.02,1.8-4.02,4.02
		C536.44,391.09,538.24,392.89,540.46,392.89"/>
	<path class="st0" d="M543.51,401.3c2.22,0,4.02-1.8,4.02-4.02c0-2.22-1.8-4.02-4.02-4.02c-2.22,0-4.02,1.8-4.02,4.02
		C539.49,399.5,541.29,401.3,543.51,401.3"/>
	<path class="st0" d="M538.76,396.79c2.22,0,4.02-1.8,4.02-4.02c0-2.22-1.8-4.02-4.02-4.02c-2.22,0-4.02,1.8-4.02,4.02
		C534.73,394.99,536.53,396.79,538.76,396.79"/>
	<path class="st0" d="M528.39,430.69c2.22,0,4.02-1.8,4.02-4.02c0-2.22-1.8-4.02-4.02-4.02c-2.22,0-4.02,1.8-4.02,4.02
		C524.37,428.88,526.17,430.69,528.39,430.69"/>
	<path class="st0" d="M524.13,434.95c2.22,0,4.02-1.8,4.02-4.02c0-2.22-1.8-4.02-4.02-4.02c-2.22,0-4.02,1.8-4.02,4.02
		C520.1,433.15,521.9,434.95,524.13,434.95"/>
	<path class="st0" d="M527.42,413.37c2.22,0,4.02-1.8,4.02-4.02c0-2.22-1.8-4.02-4.02-4.02c-2.22,0-4.02,1.8-4.02,4.02
		C523.39,411.57,525.2,413.37,527.42,413.37"/>
	<path class="st0" d="M522.83,397.24c1.71,0,3.09-1.38,3.09-3.09c0-1.71-1.38-3.09-3.09-3.09c-1.71,0-3.09,1.38-3.09,3.09
		C519.74,395.86,521.12,397.24,522.83,397.24"/>
	<path class="st0" d="M529.29,421.99c1.71,0,3.09-1.38,3.09-3.09c0-1.71-1.38-3.09-3.09-3.09c-1.71,0-3.09,1.38-3.09,3.09
		C526.2,420.61,527.58,421.99,529.29,421.99"/>
	<path class="st0" d="M534.77,414.37c1.71,0,3.09-1.38,3.09-3.09c0-1.71-1.38-3.09-3.09-3.09c-1.71,0-3.09,1.38-3.09,3.09
		C531.68,412.99,533.07,414.37,534.77,414.37"/>
	<path class="st0" d="M575.62,397.24c1.71,0,3.09-1.38,3.09-3.09c0-1.71-1.38-3.09-3.09-3.09c-1.71,0-3.09,1.38-3.09,3.09
		C572.53,395.86,573.91,397.24,575.62,397.24"/>
	<path class="st0" d="M614.02,401.87c1.71,0,3.09-1.38,3.09-3.09c0-1.71-1.38-3.09-3.09-3.09c-1.71,0-3.09,1.38-3.09,3.09
		C610.93,400.49,612.32,401.87,614.02,401.87"/>
	<path class="st0" d="M571.35,429.67c1.71,0,3.09-1.38,3.09-3.09c0-1.71-1.38-3.09-3.09-3.09c-1.71,0-3.09,1.38-3.09,3.09
		C568.26,428.29,569.64,429.67,571.35,429.67"/>
	<path class="st0" d="M580.49,428.25c1.71,0,3.09-1.38,3.09-3.09c0-1.71-1.38-3.09-3.09-3.09c-1.71,0-3.09,1.38-3.09,3.09
		C577.4,426.86,578.79,428.25,580.49,428.25"/>
	<path class="st0" d="M592.56,441.25c1.71,0,3.09-1.38,3.09-3.09c0-1.71-1.38-3.09-3.09-3.09c-1.71,0-3.09,1.38-3.09,3.09
		C589.47,439.87,590.86,441.25,592.56,441.25"/>
	<path class="st0" d="M571.27,444.79c1.71,0,3.09-1.38,3.09-3.09c0-1.71-1.38-3.09-3.09-3.09c-1.71,0-3.09,1.38-3.09,3.09
		C568.18,443.41,569.56,444.79,571.27,444.79"/>
	<path class="st0" d="M577.57,442.35c1.71,0,3.09-1.38,3.09-3.09c0-1.71-1.38-3.09-3.09-3.09c-1.71,0-3.09,1.38-3.09,3.09
		C574.48,440.97,575.86,442.35,577.57,442.35"/>
	<path class="st0" d="M572.94,412.48c1.71,0,3.09-1.38,3.09-3.09s-1.38-3.09-3.09-3.09c-1.71,0-3.09,1.38-3.09,3.09
		S571.23,412.48,572.94,412.48"/>
	<path class="st0" d="M583.91,414.23c1.71,0,3.09-1.38,3.09-3.09c0-1.71-1.38-3.09-3.09-3.09c-1.71,0-3.09,1.38-3.09,3.09
		C580.82,412.84,582.2,414.23,583.91,414.23"/>
	<path class="st0" d="M593.42,413.82c1.71,0,3.09-1.38,3.09-3.09c0-1.71-1.38-3.09-3.09-3.09c-1.71,0-3.09,1.38-3.09,3.09
		C590.33,412.44,591.71,413.82,593.42,413.82"/>
	<path class="st0" d="M593.05,396.88c1.71,0,3.09-1.38,3.09-3.09c0-1.71-1.38-3.09-3.09-3.09c-1.71,0-3.09,1.38-3.09,3.09
		C589.96,395.49,591.34,396.88,593.05,396.88"/>
	<path class="st0" d="M540.14,415.77c1.71,0,3.09-1.38,3.09-3.09c0-1.71-1.38-3.09-3.09-3.09c-1.71,0-3.09,1.38-3.09,3.09
		C537.05,414.39,538.43,415.77,540.14,415.77"/>
	<path class="st0" d="M542.21,411.87c1.71,0,3.09-1.38,3.09-3.09c0-1.71-1.38-3.09-3.09-3.09c-1.71,0-3.09,1.38-3.09,3.09
		C539.12,410.49,540.5,411.87,542.21,411.87"/>
	<path class="st0" d="M520.45,432.6c1.71,0,3.09-1.38,3.09-3.09c0-1.71-1.38-3.09-3.09-3.09c-1.71,0-3.09,1.38-3.09,3.09
		C517.36,431.21,518.74,432.6,520.45,432.6"/>
	<path class="st0" d="M552.57,420.32c1.71,0,3.09-1.38,3.09-3.09c0-1.71-1.38-3.09-3.09-3.09c-1.71,0-3.09,1.38-3.09,3.09
		C549.48,418.94,550.87,420.32,552.57,420.32"/>
	<path class="st0" d="M503.93,438.08c1.71,0,3.09-1.38,3.09-3.09c0-1.71-1.38-3.09-3.09-3.09c-1.71,0-3.09,1.38-3.09,3.09
		C500.84,436.7,502.22,438.08,503.93,438.08"/>
	<path class="st0" d="M652.43,448.04c1.71,0,3.09-1.38,3.09-3.09c0-1.71-1.38-3.09-3.09-3.09c-1.71,0-3.09,1.38-3.09,3.09
		C649.34,446.66,650.72,448.04,652.43,448.04"/>
	<path class="st0" d="M488.69,397.85c1.71,0,3.09-1.38,3.09-3.09c0-1.71-1.38-3.09-3.09-3.09c-1.71,0-3.09,1.38-3.09,3.09
		C485.6,396.47,486.98,397.85,488.69,397.85"/>
	<path class="st0" d="M581.92,381.35c1.71,0,3.09-1.38,3.09-3.09c0-1.71-1.38-3.09-3.09-3.09c-1.71,0-3.09,1.38-3.09,3.09
		C578.83,379.97,580.21,381.35,581.92,381.35"/>
	<path class="st0" d="M519.66,403.34c1.71,0,3.09-1.38,3.09-3.09c0-1.71-1.38-3.09-3.09-3.09c-1.71,0-3.09,1.38-3.09,3.09
		C516.57,401.95,517.95,403.34,519.66,403.34"/>
	<path class="st0" d="M548.19,393.71c1.71,0,3.09-1.38,3.09-3.09c0-1.71-1.38-3.09-3.09-3.09c-1.71,0-3.09,1.38-3.09,3.09
		C545.1,392.32,546.48,393.71,548.19,393.71"/>
	<path class="st0" d="M552.21,399.31c1.71,0,3.09-1.38,3.09-3.09c0-1.71-1.38-3.09-3.09-3.09c-1.71,0-3.09,1.38-3.09,3.09
		C549.12,397.93,550.5,399.31,552.21,399.31"/>
	<path class="st0" d="M519.9,443.2c1.71,0,3.09-1.38,3.09-3.09c0-1.71-1.38-3.09-3.09-3.09c-1.71,0-3.09,1.38-3.09,3.09
		C516.81,441.82,518.19,443.2,519.9,443.2"/>
	<path class="st0" d="M530.02,438.33c1.71,0,3.09-1.38,3.09-3.09c0-1.71-1.38-3.09-3.09-3.09c-1.71,0-3.09,1.38-3.09,3.09
		C526.93,436.95,528.31,438.33,530.02,438.33"/>
	<path class="st0" d="M533.56,441.13c1.71,0,3.09-1.38,3.09-3.09s-1.38-3.09-3.09-3.09c-1.71,0-3.09,1.38-3.09,3.09
		S531.85,441.13,533.56,441.13"/>
	<path class="st0" d="M536.6,438.08c1.71,0,3.09-1.38,3.09-3.09c0-1.71-1.38-3.09-3.09-3.09c-1.71,0-3.09,1.38-3.09,3.09
		C533.51,436.7,534.9,438.08,536.6,438.08"/>
	<path class="st0" d="M577.45,391.15c1.71,0,3.09-1.38,3.09-3.09c0-1.71-1.38-3.09-3.09-3.09c-1.71,0-3.09,1.38-3.09,3.09
		C574.36,389.76,575.74,391.15,577.45,391.15"/>
	<path class="st0" d="M588.78,391.15c1.71,0,3.09-1.38,3.09-3.09c0-1.71-1.38-3.09-3.09-3.09c-1.71,0-3.09,1.38-3.09,3.09
		C585.69,389.76,587.08,391.15,588.78,391.15"/>
	<path class="st0" d="M617.6,391.15c1.71,0,3.09-1.38,3.09-3.09c0-1.71-1.38-3.09-3.09-3.09c-1.71,0-3.09,1.38-3.09,3.09
		C614.51,389.76,615.89,391.15,617.6,391.15"/>
	<path class="st0" d="M624.39,402.48c1.71,0,3.09-1.38,3.09-3.09c0-1.71-1.38-3.09-3.09-3.09c-1.71,0-3.09,1.38-3.09,3.09
		C621.29,401.1,622.68,402.48,624.39,402.48"/>
	<path class="st0" d="M629.38,414.23c1.71,0,3.09-1.38,3.09-3.09c0-1.71-1.38-3.09-3.09-3.09c-1.71,0-3.09,1.38-3.09,3.09
		C626.29,412.84,627.68,414.23,629.38,414.23"/>
	<path class="st0" d="M641.09,430.08c1.71,0,3.09-1.38,3.09-3.09c0-1.71-1.38-3.09-3.09-3.09c-1.71,0-3.09,1.38-3.09,3.09
		C638,428.69,639.38,430.08,641.09,430.08"/>
	<path class="st0" d="M639.75,444.12c1.71,0,3.09-1.38,3.09-3.09s-1.38-3.09-3.09-3.09c-1.71,0-3.09,1.38-3.09,3.09
		S638.04,444.12,639.75,444.12"/>
	<path class="st0" d="M660.53,389.99c1.71,0,3.09-1.38,3.09-3.09s-1.38-3.09-3.09-3.09c-1.71,0-3.09,1.38-3.09,3.09
		S658.83,389.99,660.53,389.99"/>
	<path class="st0" d="M686.56,392.73c1.71,0,3.09-1.38,3.09-3.09c0-1.71-1.38-3.09-3.09-3.09c-1.71,0-3.09,1.38-3.09,3.09
		C683.47,391.35,684.86,392.73,686.56,392.73"/>
	<path class="st0" d="M715.4,391.06c1.71,0,3.09-1.38,3.09-3.09c0-1.71-1.38-3.09-3.09-3.09c-1.71,0-3.09,1.38-3.09,3.09
		C712.31,389.68,713.69,391.06,715.4,391.06"/>
	<path class="st0" d="M700.89,404.92c1.71,0,3.09-1.38,3.09-3.09c0-1.71-1.38-3.09-3.09-3.09c-1.71,0-3.09,1.38-3.09,3.09
		C697.8,403.54,699.18,404.92,700.89,404.92"/>
	<path class="st0" d="M702.41,430.77c1.71,0,3.09-1.38,3.09-3.09c0-1.71-1.38-3.09-3.09-3.09c-1.71,0-3.09,1.38-3.09,3.09
		C699.32,429.39,700.71,430.77,702.41,430.77"/>
	<path class="st0" d="M702.41,444.55c1.71,0,3.09-1.38,3.09-3.09c0-1.71-1.38-3.09-3.09-3.09c-1.71,0-3.09,1.38-3.09,3.09
		C699.32,443.16,700.71,444.55,702.41,444.55"/>
	<path class="st0" d="M698.21,411.08c1.71,0,3.09-1.38,3.09-3.09c0-1.71-1.38-3.09-3.09-3.09c-1.71,0-3.09,1.38-3.09,3.09
		C695.12,409.7,696.5,411.08,698.21,411.08"/>
	<path class="st0" d="M713.08,403.09c1.71,0,3.09-1.38,3.09-3.09c0-1.71-1.38-3.09-3.09-3.09c-1.71,0-3.09,1.38-3.09,3.09
		C709.99,401.71,711.38,403.09,713.08,403.09"/>
	<path class="st0" d="M705.89,412.3c1.71,0,3.09-1.38,3.09-3.09c0-1.71-1.38-3.09-3.09-3.09c-1.71,0-3.09,1.38-3.09,3.09
		C702.8,410.92,704.18,412.3,705.89,412.3"/>
	<path class="st0" d="M691.68,408.4c1.71,0,3.09-1.38,3.09-3.09c0-1.71-1.38-3.09-3.09-3.09c-1.71,0-3.09,1.38-3.09,3.09
		C688.59,407.01,689.98,408.4,691.68,408.4"/>
	<path class="st0" d="M684.92,407.67c1.71,0,3.09-1.38,3.09-3.09c0-1.71-1.38-3.09-3.09-3.09c-1.71,0-3.09,1.38-3.09,3.09
		C681.83,406.28,683.21,407.67,684.92,407.67"/>
	<path class="st0" d="M696.32,428.7c1.71,0,3.09-1.38,3.09-3.09c0-1.71-1.38-3.09-3.09-3.09c-1.71,0-3.09,1.38-3.09,3.09
		C693.23,427.31,694.61,428.7,696.32,428.7"/>
	<path class="st0" d="M652.12,404.37c1.71,0,3.09-1.38,3.09-3.09c0-1.71-1.38-3.09-3.09-3.09c-1.71,0-3.09,1.38-3.09,3.09
		C649.03,402.99,650.41,404.37,652.12,404.37"/>
	<path class="st0" d="M642.31,413.94c1.71,0,3.09-1.38,3.09-3.09c0-1.71-1.38-3.09-3.09-3.09c-1.71,0-3.09,1.38-3.09,3.09
		C639.22,412.56,640.6,413.94,642.31,413.94"/>
	<path class="st0" d="M647.79,427.84c1.71,0,3.09-1.38,3.09-3.09c0-1.71-1.38-3.09-3.09-3.09c-1.71,0-3.09,1.38-3.09,3.09
		C644.7,426.46,646.09,427.84,647.79,427.84"/>
	<path class="st0" d="M651.94,397.85c1.71,0,3.09-1.38,3.09-3.09c0-1.71-1.38-3.09-3.09-3.09c-1.71,0-3.09,1.38-3.09,3.09
		C648.85,396.47,650.23,397.85,651.94,397.85"/>
	<path class="st0" d="M621.25,418.82c1.71,0,3.09-1.38,3.09-3.09c0-1.71-1.38-3.09-3.09-3.09c-1.71,0-3.09,1.38-3.09,3.09
		C618.16,417.44,619.55,418.82,621.25,418.82"/>
	<path class="st0" d="M629.02,428.82c1.71,0,3.09-1.38,3.09-3.09c0-1.71-1.38-3.09-3.09-3.09c-1.71,0-3.09,1.38-3.09,3.09
		C625.93,427.44,627.31,428.82,629.02,428.82"/>
	<path class="st0" d="M595.37,390.66c1.71,0,3.09-1.38,3.09-3.09c0-1.71-1.38-3.09-3.09-3.09c-1.71,0-3.09,1.38-3.09,3.09
		C592.28,389.27,593.66,390.66,595.37,390.66"/>
	<path class="st0" d="M526.38,390.82c1.11,0,2.01-0.9,2.01-2.01s-0.9-2.01-2.01-2.01c-1.11,0-2.01,0.9-2.01,2.01
		S525.27,390.82,526.38,390.82"/>
	<path class="st0" d="M533.21,388.26c1.11,0,2.01-0.9,2.01-2.01s-0.9-2.01-2.01-2.01c-1.11,0-2.01,0.9-2.01,2.01
		S532.1,388.26,533.21,388.26"/>
	<path class="st0" d="M521.75,408.13c1.11,0,2.01-0.9,2.01-2.01s-0.9-2.01-2.01-2.01c-1.11,0-2.01,0.9-2.01,2.01
		S520.64,408.13,521.75,408.13"/>
	<path class="st0" d="M544.06,405.69c1.11,0,2.01-0.9,2.01-2.01c0-1.11-0.9-2.01-2.01-2.01c-1.11,0-2.01,0.9-2.01,2.01
		C542.05,404.79,542.95,405.69,544.06,405.69"/>
	<path class="st0" d="M549.55,408.01c1.11,0,2.01-0.9,2.01-2.01s-0.9-2.01-2.01-2.01c-1.11,0-2.01,0.9-2.01,2.01
		S548.43,408.01,549.55,408.01"/>
	<path class="st0" d="M553.45,405.08c1.11,0,2.01-0.9,2.01-2.01c0-1.11-0.9-2.01-2.01-2.01c-1.11,0-2.01,0.9-2.01,2.01
		C551.43,404.18,552.34,405.08,553.45,405.08"/>
	<path class="st0" d="M570.27,396.55c1.11,0,2.01-0.9,2.01-2.01c0-1.11-0.9-2.01-2.01-2.01c-1.11,0-2.01,0.9-2.01,2.01
		C568.26,395.65,569.16,396.55,570.27,396.55"/>
	<path class="st0" d="M581.24,399.84c1.11,0,2.01-0.9,2.01-2.01s-0.9-2.01-2.01-2.01c-1.11,0-2.01,0.9-2.01,2.01
		S580.13,399.84,581.24,399.84"/>
	<path class="st0" d="M595.87,398.5c1.11,0,2.01-0.9,2.01-2.01s-0.9-2.01-2.01-2.01c-1.11,0-2.01,0.9-2.01,2.01
		S594.76,398.5,595.87,398.5"/>
	<path class="st0" d="M600.51,398.5c1.11,0,2.01-0.9,2.01-2.01s-0.9-2.01-2.01-2.01c-1.11,0-2.01,0.9-2.01,2.01
		S599.4,398.5,600.51,398.5"/>
	<path class="st0" d="M581.98,404.84c1.11,0,2.01-0.9,2.01-2.01c0-1.11-0.9-2.01-2.01-2.01c-1.11,0-2.01,0.9-2.01,2.01
		C579.96,403.94,580.86,404.84,581.98,404.84"/>
	<path class="st0" d="M576.73,415.2c1.11,0,2.01-0.9,2.01-2.01c0-1.11-0.9-2.01-2.01-2.01c-1.11,0-2.01,0.9-2.01,2.01
		C574.72,414.3,575.62,415.2,576.73,415.2"/>
	<path class="st0" d="M580.51,417.52c1.11,0,2.01-0.9,2.01-2.01c0-1.11-0.9-2.01-2.01-2.01c-1.11,0-2.01,0.9-2.01,2.01
		C578.5,416.62,579.4,417.52,580.51,417.52"/>
	<path class="st0" d="M591.49,421.54c1.11,0,2.01-0.9,2.01-2.01s-0.9-2.01-2.01-2.01c-1.11,0-2.01,0.9-2.01,2.01
		S590.37,421.54,591.49,421.54"/>
	<path class="st0" d="M581.73,422.03c1.11,0,2.01-0.9,2.01-2.01s-0.9-2.01-2.01-2.01c-1.11,0-2.01,0.9-2.01,2.01
		S580.62,422.03,581.73,422.03"/>
	<path class="st0" d="M576.98,421.91c1.11,0,2.01-0.9,2.01-2.01c0-1.11-0.9-2.01-2.01-2.01c-1.11,0-2.01,0.9-2.01,2.01
		C574.97,421.01,575.87,421.91,576.98,421.91"/>
	<path class="st0" d="M575.15,426.91c1.11,0,2.01-0.9,2.01-2.01s-0.9-2.01-2.01-2.01c-1.11,0-2.01,0.9-2.01,2.01
		S574.04,426.91,575.15,426.91"/>
	<path class="st0" d="M576,431.54c1.11,0,2.01-0.9,2.01-2.01s-0.9-2.01-2.01-2.01c-1.11,0-2.01,0.9-2.01,2.01
		S574.89,431.54,576,431.54"/>
	<path class="st0" d="M591.36,434.46c1.11,0,2.01-0.9,2.01-2.01c0-1.11-0.9-2.01-2.01-2.01c-1.11,0-2.01,0.9-2.01,2.01
		C589.35,433.56,590.25,434.46,591.36,434.46"/>
	<path class="st0" d="M582.71,443.24c1.11,0,2.01-0.9,2.01-2.01c0-1.11-0.9-2.01-2.01-2.01c-1.11,0-2.01,0.9-2.01,2.01
		C580.7,442.34,581.6,443.24,582.71,443.24"/>
	<path class="st0" d="M586.73,441.54c1.11,0,2.01-0.9,2.01-2.01c0-1.11-0.9-2.01-2.01-2.01c-1.11,0-2.01,0.9-2.01,2.01
		C584.72,440.63,585.62,441.54,586.73,441.54"/>
	<path class="st0" d="M589.17,444.1c1.11,0,2.01-0.9,2.01-2.01c0-1.11-0.9-2.01-2.01-2.01c-1.11,0-2.01,0.9-2.01,2.01
		C587.16,443.2,588.06,444.1,589.17,444.1"/>
	<path class="st0" d="M596.36,436.42c1.11,0,2.01-0.9,2.01-2.01s-0.9-2.01-2.01-2.01c-1.11,0-2.01,0.9-2.01,2.01
		S595.25,436.42,596.36,436.42"/>
	<path class="st0" d="M598.8,434.34c1.11,0,2.01-0.9,2.01-2.01s-0.9-2.01-2.01-2.01c-1.11,0-2.01,0.9-2.01,2.01
		S597.69,434.34,598.8,434.34"/>
	<path class="st0" d="M601.12,436.42c1.11,0,2.01-0.9,2.01-2.01s-0.9-2.01-2.01-2.01c-1.11,0-2.01,0.9-2.01,2.01
		S600.01,436.42,601.12,436.42"/>
	<path class="st0" d="M580.76,432.15c1.11,0,2.01-0.9,2.01-2.01c0-1.11-0.9-2.01-2.01-2.01c-1.11,0-2.01,0.9-2.01,2.01
		C578.74,431.25,579.65,432.15,580.76,432.15"/>
	<path class="st0" d="M577.95,435.68c1.11,0,2.01-0.9,2.01-2.01s-0.9-2.01-2.01-2.01c-1.11,0-2.01,0.9-2.01,2.01
		S576.84,435.68,577.95,435.68"/>
	<path class="st0" d="M578.44,409.59c1.11,0,2.01-0.9,2.01-2.01s-0.9-2.01-2.01-2.01c-1.11,0-2.01,0.9-2.01,2.01
		S577.33,409.59,578.44,409.59"/>
	<path class="st0" d="M598.92,412.64c1.11,0,2.01-0.9,2.01-2.01c0-1.11-0.9-2.01-2.01-2.01c-1.11,0-2.01,0.9-2.01,2.01
		C596.91,411.74,597.81,412.64,598.92,412.64"/>
	<path class="st0" d="M588.19,412.15c1.11,0,2.01-0.9,2.01-2.01c0-1.11-0.9-2.01-2.01-2.01c-1.11,0-2.01,0.9-2.01,2.01
		C586.18,411.25,587.08,412.15,588.19,412.15"/>
	<path class="st0" d="M598.31,394.11c1.11,0,2.01-0.9,2.01-2.01s-0.9-2.01-2.01-2.01c-1.11,0-2.01,0.9-2.01,2.01
		S597.2,394.11,598.31,394.11"/>
	<path class="st0" d="M600.75,393.87c1.11,0,2.01-0.9,2.01-2.01s-0.9-2.01-2.01-2.01c-1.11,0-2.01,0.9-2.01,2.01
		S599.64,393.87,600.75,393.87"/>
	<path class="st0" d="M600.63,389.23c1.11,0,2.01-0.9,2.01-2.01s-0.9-2.01-2.01-2.01c-1.11,0-2.01,0.9-2.01,2.01
		S599.52,389.23,600.63,389.23"/>
	<path class="st0" d="M570.27,408.25c1.11,0,2.01-0.9,2.01-2.01c0-1.11-0.9-2.01-2.01-2.01c-1.11,0-2.01,0.9-2.01,2.01
		C568.26,407.35,569.16,408.25,570.27,408.25"/>
	<path class="st0" d="M588.19,398.25c1.11,0,2.01-0.9,2.01-2.01s-0.9-2.01-2.01-2.01c-1.11,0-2.01,0.9-2.01,2.01
		S587.08,398.25,588.19,398.25"/>
	<path class="st0" d="M622.58,393.13c1.11,0,2.01-0.9,2.01-2.01s-0.9-2.01-2.01-2.01c-1.11,0-2.01,0.9-2.01,2.01
		S621.46,393.13,622.58,393.13"/>
	<path class="st0" d="M619.41,404.11c1.11,0,2.01-0.9,2.01-2.01c0-1.11-0.9-2.01-2.01-2.01c-1.11,0-2.01,0.9-2.01,2.01
		C617.39,403.21,618.29,404.11,619.41,404.11"/>
	<path class="st0" d="M624.77,421.79c1.11,0,2.01-0.9,2.01-2.01c0-1.11-0.9-2.01-2.01-2.01c-1.11,0-2.01,0.9-2.01,2.01
		C622.76,420.88,623.66,421.79,624.77,421.79"/>
	<path class="st0" d="M623.55,425.93c1.11,0,2.01-0.9,2.01-2.01c0-1.11-0.9-2.01-2.01-2.01c-1.11,0-2.01,0.9-2.01,2.01
		C621.54,425.03,622.44,425.93,623.55,425.93"/>
	<path class="st0" d="M634.28,425.93c1.11,0,2.01-0.9,2.01-2.01c0-1.11-0.9-2.01-2.01-2.01c-1.11,0-2.01,0.9-2.01,2.01
		C632.27,425.03,633.17,425.93,634.28,425.93"/>
	<path class="st0" d="M633.67,430.93c1.11,0,2.01-0.9,2.01-2.01c0-1.11-0.9-2.01-2.01-2.01c-1.11,0-2.01,0.9-2.01,2.01
		C631.66,430.03,632.56,430.93,633.67,430.93"/>
	<path class="st0" d="M636.6,434.71c1.11,0,2.01-0.9,2.01-2.01c0-1.11-0.9-2.01-2.01-2.01c-1.11,0-2.01,0.9-2.01,2.01
		C634.58,433.81,635.48,434.71,636.6,434.71"/>
	<path class="st0" d="M642.2,439.22c1.11,0,2.01-0.9,2.01-2.01s-0.9-2.01-2.01-2.01c-1.11,0-2.01,0.9-2.01,2.01
		S641.09,439.22,642.2,439.22"/>
	<path class="st0" d="M641.72,434.83c1.11,0,2.01-0.9,2.01-2.01s-0.9-2.01-2.01-2.01c-1.11,0-2.01,0.9-2.01,2.01
		S640.61,434.83,641.72,434.83"/>
	<path class="st0" d="M638.06,438.06c1.11,0,2.01-0.9,2.01-2.01c0-1.11-0.9-2.01-2.01-2.01c-1.11,0-2.01,0.9-2.01,2.01
		C636.05,437.16,636.95,438.06,638.06,438.06"/>
	<path class="st0" d="M645.62,432.64c1.11,0,2.01-0.9,2.01-2.01c0-1.11-0.9-2.01-2.01-2.01c-1.11,0-2.01,0.9-2.01,2.01
		C643.61,431.73,644.51,432.64,645.62,432.64"/>
	<path class="st0" d="M637.94,428.73c1.11,0,2.01-0.9,2.01-2.01s-0.9-2.01-2.01-2.01c-1.11,0-2.01,0.9-2.01,2.01
		S636.83,428.73,637.94,428.73"/>
	<path class="st0" d="M623.92,405.94c1.11,0,2.01-0.9,2.01-2.01c0-1.11-0.9-2.01-2.01-2.01c-1.11,0-2.01,0.9-2.01,2.01
		C621.9,405.03,622.81,405.94,623.92,405.94"/>
	<path class="st0" d="M657.08,394.84c1.11,0,2.01-0.9,2.01-2.01c0-1.11-0.9-2.01-2.01-2.01c-1.11,0-2.01,0.9-2.01,2.01
		C655.07,393.94,655.97,394.84,657.08,394.84"/>
	<path class="st0" d="M661.71,393.99c1.11,0,2.01-0.9,2.01-2.01c0-1.11-0.9-2.01-2.01-2.01c-1.11,0-2.01,0.9-2.01,2.01
		C659.7,393.09,660.6,393.99,661.71,393.99"/>
	<path class="st0" d="M664.88,388.14c1.11,0,2.01-0.9,2.01-2.01c0-1.11-0.9-2.01-2.01-2.01c-1.11,0-2.01,0.9-2.01,2.01
		C662.87,387.23,663.77,388.14,664.88,388.14"/>
	<path class="st0" d="M672.2,388.87c1.11,0,2.01-0.9,2.01-2.01c0-1.11-0.9-2.01-2.01-2.01c-1.11,0-2.01,0.9-2.01,2.01
		C670.18,387.97,671.09,388.87,672.2,388.87"/>
	<path class="st0" d="M682.56,395.76c1.11,0,2.01-0.9,2.01-2.01c0-1.11-0.9-2.01-2.01-2.01c-1.11,0-2.01,0.9-2.01,2.01
		C680.55,394.85,681.45,395.76,682.56,395.76"/>
	<path class="st0" d="M721.21,389.05c1.11,0,2.01-0.9,2.01-2.01c0-1.11-0.9-2.01-2.01-2.01c-1.11,0-2.01,0.9-2.01,2.01
		C719.2,388.15,720.1,389.05,721.21,389.05"/>
	<path class="st0" d="M718.59,393.07c1.11,0,2.01-0.9,2.01-2.01c0-1.11-0.9-2.01-2.01-2.01c-1.11,0-2.01,0.9-2.01,2.01
		C716.57,392.17,717.48,393.07,718.59,393.07"/>
	<path class="st0" d="M705.11,405.45c1.11,0,2.01-0.9,2.01-2.01s-0.9-2.01-2.01-2.01c-1.11,0-2.01,0.9-2.01,2.01
		S704,405.45,705.11,405.45"/>
	<path class="st0" d="M714.32,396.3c1.11,0,2.01-0.9,2.01-2.01c0-1.11-0.9-2.01-2.01-2.01c-1.11,0-2.01,0.9-2.01,2.01
		C712.31,395.4,713.21,396.3,714.32,396.3"/>
	<path class="st0" d="M707.31,401.55c1.11,0,2.01-0.9,2.01-2.01c0-1.11-0.9-2.01-2.01-2.01c-1.11,0-2.01,0.9-2.01,2.01
		C705.3,400.65,706.2,401.55,707.31,401.55"/>
	<path class="st0" d="M709.75,406.85c1.11,0,2.01-0.9,2.01-2.01c0-1.11-0.9-2.01-2.01-2.01c-1.11,0-2.01,0.9-2.01,2.01
		C707.74,405.95,708.64,406.85,709.75,406.85"/>
	<path class="st0" d="M702.62,398.86c1.11,0,2.01-0.9,2.01-2.01c0-1.11-0.9-2.01-2.01-2.01c-1.11,0-2.01,0.9-2.01,2.01
		C700.6,397.96,701.5,398.86,702.62,398.86"/>
	<path class="st0" d="M708.89,388.93c1.11,0,2.01-0.9,2.01-2.01s-0.9-2.01-2.01-2.01c-1.11,0-2.01,0.9-2.01,2.01
		S707.78,388.93,708.89,388.93"/>
	<path class="st0" d="M678.11,398.8c1.11,0,2.01-0.9,2.01-2.01c0-1.11-0.9-2.01-2.01-2.01c-1.11,0-2.01,0.9-2.01,2.01
		C676.1,397.9,677,398.8,678.11,398.8"/>
	<path class="st0" d="M682.07,400.57c1.11,0,2.01-0.9,2.01-2.01s-0.9-2.01-2.01-2.01c-1.11,0-2.01,0.9-2.01,2.01
		S680.96,400.57,682.07,400.57"/>
	<path class="st0" d="M695.54,403.56c1.11,0,2.01-0.9,2.01-2.01s-0.9-2.01-2.01-2.01c-1.11,0-2.01,0.9-2.01,2.01
		S694.43,403.56,695.54,403.56"/>
	<path class="st0" d="M691.09,425.56c1.11,0,2.01-0.9,2.01-2.01s-0.9-2.01-2.01-2.01c-1.11,0-2.01,0.9-2.01,2.01
		S689.98,425.56,691.09,425.56"/>
	<path class="st0" d="M695.12,421.3c1.11,0,2.01-0.9,2.01-2.01c0-1.11-0.9-2.01-2.01-2.01c-1.11,0-2.01,0.9-2.01,2.01
		C693.11,420.4,694.01,421.3,695.12,421.3"/>
	<path class="st0" d="M691.58,444.1c1.11,0,2.01-0.9,2.01-2.01c0-1.11-0.9-2.01-2.01-2.01c-1.11,0-2.01,0.9-2.01,2.01
		C689.57,443.2,690.47,444.1,691.58,444.1"/>
	<path class="st0" d="M698.04,444.1c1.11,0,2.01-0.9,2.01-2.01c0-1.11-0.9-2.01-2.01-2.01c-1.11,0-2.01,0.9-2.01,2.01
		C696.03,443.2,696.93,444.1,698.04,444.1"/>
	<path class="st0" d="M699.26,438.49c1.11,0,2.01-0.9,2.01-2.01s-0.9-2.01-2.01-2.01c-1.11,0-2.01,0.9-2.01,2.01
		S698.15,438.49,699.26,438.49"/>
	<path class="st0" d="M702.92,435.2c1.11,0,2.01-0.9,2.01-2.01s-0.9-2.01-2.01-2.01c-1.11,0-2.01,0.9-2.01,2.01
		S701.81,435.2,702.92,435.2"/>
	<path class="st0" d="M698.29,433.12c1.11,0,2.01-0.9,2.01-2.01s-0.9-2.01-2.01-2.01c-1.11,0-2.01,0.9-2.01,2.01
		S697.18,433.12,698.29,433.12"/>
	<path class="st0" d="M676.71,394.72c1.11,0,2.01-0.9,2.01-2.01s-0.9-2.01-2.01-2.01c-1.11,0-2.01,0.9-2.01,2.01
		S675.6,394.72,676.71,394.72"/>
	<path class="st0" d="M659.27,399.47c1.11,0,2.01-0.9,2.01-2.01s-0.9-2.01-2.01-2.01c-1.11,0-2.01,0.9-2.01,2.01
		S658.16,399.47,659.27,399.47"/>
	<path class="st0" d="M651.1,409.53c1.11,0,2.01-0.9,2.01-2.01s-0.9-2.01-2.01-2.01c-1.11,0-2.01,0.9-2.01,2.01
		S649.99,409.53,651.1,409.53"/>
	<path class="st0" d="M655.68,408.56c1.11,0,2.01-0.9,2.01-2.01c0-1.11-0.9-2.01-2.01-2.01c-1.11,0-2.01,0.9-2.01,2.01
		C653.66,407.66,654.57,408.56,655.68,408.56"/>
	<path class="st0" d="M657.51,404.47c1.11,0,2.01-0.9,2.01-2.01s-0.9-2.01-2.01-2.01c-1.11,0-2.01,0.9-2.01,2.01
		S656.39,404.47,657.51,404.47"/>
	<path class="st0" d="M653.42,413.74c1.11,0,2.01-0.9,2.01-2.01s-0.9-2.01-2.01-2.01c-1.11,0-2.01,0.9-2.01,2.01
		S652.31,413.74,653.42,413.74"/>
	<path class="st0" d="M648.06,412.52c1.11,0,2.01-0.9,2.01-2.01c0-1.11-0.9-2.01-2.01-2.01c-1.11,0-2.01,0.9-2.01,2.01
		C646.04,411.62,646.95,412.52,648.06,412.52"/>
	<path class="st0" d="M648.06,395.69c1.11,0,2.01-0.9,2.01-2.01s-0.9-2.01-2.01-2.01c-1.11,0-2.01,0.9-2.01,2.01
		S646.95,395.69,648.06,395.69"/>
	<path class="st0" d="M625.62,412.28c1.11,0,2.01-0.9,2.01-2.01c0-1.11-0.9-2.01-2.01-2.01c-1.11,0-2.01,0.9-2.01,2.01
		C623.61,411.37,624.51,412.28,625.62,412.28"/>
	<path class="st0" d="M626.11,415.45c1.11,0,2.01-0.9,2.01-2.01c0-1.11-0.9-2.01-2.01-2.01c-1.11,0-2.01,0.9-2.01,2.01
		C624.1,414.54,625,415.45,626.11,415.45"/>
	<path class="st0" d="M628.43,407.52c1.11,0,2.01-0.9,2.01-2.01s-0.9-2.01-2.01-2.01c-1.11,0-2.01,0.9-2.01,2.01
		S627.32,407.52,628.43,407.52"/>
	<path class="st0" d="M611.36,396.06c1.11,0,2.01-0.9,2.01-2.01c0-1.11-0.9-2.01-2.01-2.01c-1.11,0-2.01,0.9-2.01,2.01
		C609.35,395.16,610.25,396.06,611.36,396.06"/>
	<path class="st0" d="M570.27,414.84c1.11,0,2.01-0.9,2.01-2.01c0-1.11-0.9-2.01-2.01-2.01c-1.11,0-2.01,0.9-2.01,2.01
		C568.26,413.93,569.16,414.84,570.27,414.84"/>
	<path class="st0" d="M570.27,401.06c1.11,0,2.01-0.9,2.01-2.01s-0.9-2.01-2.01-2.01c-1.11,0-2.01,0.9-2.01,2.01
		S569.16,401.06,570.27,401.06"/>
	<path class="st0" d="M547.78,412.76c1.11,0,2.01-0.9,2.01-2.01s-0.9-2.01-2.01-2.01c-1.11,0-2.01,0.9-2.01,2.01
		S546.67,412.76,547.78,412.76"/>
	<path class="st0" d="M549.18,402.89c1.11,0,2.01-0.9,2.01-2.01s-0.9-2.01-2.01-2.01c-1.11,0-2.01,0.9-2.01,2.01
		S548.07,402.89,549.18,402.89"/>
	<path class="st0" d="M518.09,411.91c1.11,0,2.01-0.9,2.01-2.01s-0.9-2.01-2.01-2.01c-1.11,0-2.01,0.9-2.01,2.01
		S516.98,411.91,518.09,411.91"/>
	<path class="st0" d="M737.2,371.51c1.11,0,2.01-0.9,2.01-2.01c0-1.11-0.9-2.01-2.01-2.01c-1.11,0-2.01,0.9-2.01,2.01
		C735.19,370.61,736.09,371.51,737.2,371.51"/>
	<path class="st0" d="M668.48,418.07c0,1.11,0.9,2.01,2.01,2.01s2.01-0.9,2.01-2.01c0-1.11-0.9-2.01-2.01-2.01
		S668.48,416.96,668.48,418.07"/>
	<path class="st0" d="M723.53,376.48c-0.97,0.54-1.32,1.76-0.78,2.73c0.54,0.97,1.76,1.32,2.74,0.78c0.97-0.54,1.32-1.76,0.78-2.73
		C725.72,376.29,724.5,375.94,723.53,376.48"/>
	<path class="st0" d="M482.95,393.32c0.56,0,1.01-0.45,1.01-1.01c0-0.56-0.45-1.01-1.01-1.01c-0.56,0-1.01,0.45-1.01,1.01
		C481.94,392.87,482.39,393.32,482.95,393.32"/>
	<path class="st0" d="M576.17,376.82c0.56,0,1.01-0.45,1.01-1.01c0-0.56-0.45-1.01-1.01-1.01c-0.56,0-1.01,0.45-1.01,1.01
		C575.17,376.37,575.62,376.82,576.17,376.82"/>
	<path class="st0" d="M675.55,416.45c0,0.56,0.45,1.01,1.01,1.01c0.55,0,1.01-0.45,1.01-1.01s-0.45-1.01-1.01-1.01
		C676,415.45,675.55,415.9,675.55,416.45"/>
	<path class="st0" d="M726.82,380.86c-0.49,0.27-0.66,0.88-0.39,1.37s0.88,0.66,1.37,0.39c0.49-0.27,0.66-0.88,0.39-1.37
		C727.92,380.76,727.31,380.59,726.82,380.86"/>
	<path class="st0" d="M502.67,410.93c1.11,0,2.01-0.9,2.01-2.01s-0.9-2.01-2.01-2.01c-1.11,0-2.01,0.9-2.01,2.01
		S501.56,410.93,502.67,410.93"/>
	<path class="st0" d="M507.36,415.08c1.11,0,2.01-0.9,2.01-2.01s-0.9-2.01-2.01-2.01c-1.11,0-2.01,0.9-2.01,2.01
		S506.25,415.08,507.36,415.08"/>
	<path class="st0" d="M505.76,455.28c-0.84-0.73-2.11-0.64-2.84,0.2c-0.73,0.84-0.64,2.11,0.2,2.84c0.84,0.73,2.11,0.64,2.84-0.2
		C506.68,457.28,506.59,456.01,505.76,455.28"/>
	<path class="st0" d="M504.4,420.63c0.56,0,1.01-0.45,1.01-1.01c0-0.56-0.45-1.01-1.01-1.01c-0.56,0-1.01,0.45-1.01,1.01
		C503.4,420.18,503.85,420.63,504.4,420.63"/>
	<path class="st0" d="M511.63,453.03c-0.42-0.36-1.06-0.32-1.42,0.1c-0.36,0.42-0.32,1.05,0.1,1.42c0.42,0.36,1.05,0.32,1.42-0.1
		C512.09,454.03,512.04,453.39,511.63,453.03"/>
	<path class="st0" d="M713.53,444.46c1.11,0,2.01-0.9,2.01-2.01s-0.9-2.01-2.01-2.01c-1.11,0-2.01,0.9-2.01,2.01
		S712.42,444.46,713.53,444.46"/>
	<path class="st0" d="M721.7,448.97c1.11,0,2.01-0.9,2.01-2.01c0-1.11-0.9-2.01-2.01-2.01c-1.11,0-2.01,0.9-2.01,2.01
		C719.68,448.07,720.58,448.97,721.7,448.97"/>
	<path class="st0" d="M714.96,456.2c0.56,0,1.01-0.45,1.01-1.01c0-0.55-0.45-1.01-1.01-1.01c-0.56,0-1.01,0.45-1.01,1.01
		C713.95,455.75,714.4,456.2,714.96,456.2"/>
	<path class="st0" d="M628.42,376.66c0.9,0.65,2.16,0.45,2.81-0.45c0.65-0.9,0.45-2.16-0.45-2.81c-0.9-0.65-2.16-0.45-2.81,0.45
		C627.33,374.75,627.52,376,628.42,376.66"/>
	<path class="st0" d="M633.1,383.12c0.9,0.65,2.16,0.45,2.81-0.45c0.65-0.9,0.45-2.16-0.45-2.81c-0.9-0.65-2.16-0.45-2.81,0.45
		C632,381.21,632.2,382.47,633.1,383.12"/>
	<path class="st0" d="M629.23,386.77c0.45,0.33,1.08,0.23,1.4-0.22c0.33-0.45,0.23-1.08-0.22-1.4c-0.45-0.33-1.08-0.23-1.4,0.22
		C628.68,385.82,628.78,386.45,629.23,386.77"/>
	<path class="st0" d="M507.09,377.83c0.56,0,1.01-0.45,1.01-1.01c0-0.55-0.45-1.01-1.01-1.01c-0.56,0-1.01,0.45-1.01,1.01
		C506.08,377.38,506.53,377.83,507.09,377.83"/>
	<path class="st0" d="M518.09,425.56c1.11,0,2.01-0.9,2.01-2.01s-0.9-2.01-2.01-2.01c-1.11,0-2.01,0.9-2.01,2.01
		S516.98,425.56,518.09,425.56"/>
	<path class="st0" d="M523.09,424.65c1.11,0,2.01-0.9,2.01-2.01s-0.9-2.01-2.01-2.01c-1.11,0-2.01,0.9-2.01,2.01
		S521.98,424.65,523.09,424.65"/>
	<path class="st0" d="M522.36,422.52c1.11,0,2.01-0.9,2.01-2.01s-0.9-2.01-2.01-2.01c-1.11,0-2.01,0.9-2.01,2.01
		S521.25,422.52,522.36,422.52"/>
	<path class="st0" d="M528.33,416.79c1.11,0,2.01-0.9,2.01-2.01s-0.9-2.01-2.01-2.01c-1.11,0-2.01,0.9-2.01,2.01
		S527.22,416.79,528.33,416.79"/>
	<path class="st0" d="M535.22,419.29c1.11,0,2.01-0.9,2.01-2.01s-0.9-2.01-2.01-2.01c-1.11,0-2.01,0.9-2.01,2.01
		S534.11,419.29,535.22,419.29"/>
	<path class="st0" d="M518.09,436.9c1.11,0,2.01-0.9,2.01-2.01s-0.9-2.01-2.01-2.01c-1.11,0-2.01,0.9-2.01,2.01
		S516.98,436.9,518.09,436.9"/>
	<path class="st0" d="M521.5,439.1c1.11,0,2.01-0.9,2.01-2.01c0-1.11-0.9-2.01-2.01-2.01c-1.11,0-2.01,0.9-2.01,2.01
		C519.49,438.2,520.39,439.1,521.5,439.1"/>
	<path class="st0" d="M550.76,405.45c1.11,0,2.01-0.9,2.01-2.01s-0.9-2.01-2.01-2.01c-1.11,0-2.01,0.9-2.01,2.01
		S549.65,405.45,550.76,405.45"/>
	<path class="st0" d="M526.14,442.39c1.11,0,2.01-0.9,2.01-2.01s-0.9-2.01-2.01-2.01c-1.11,0-2.01,0.9-2.01,2.01
		S525.03,442.39,526.14,442.39"/>
	<path class="st0" d="M531.01,443.61c1.11,0,2.01-0.9,2.01-2.01c0-1.11-0.9-2.01-2.01-2.01c-1.11,0-2.01,0.9-2.01,2.01
		C529,442.71,529.9,443.61,531.01,443.61"/>
	<path class="st0" d="M535.77,442.27c1.11,0,2.01-0.9,2.01-2.01c0-1.11-0.9-2.01-2.01-2.01c-1.11,0-2.01,0.9-2.01,2.01
		C533.76,441.37,534.66,442.27,535.77,442.27"/>
	<path class="st0" d="M541.01,441.54c1.11,0,2.01-0.9,2.01-2.01c0-1.11-0.9-2.01-2.01-2.01c-1.11,0-2.01,0.9-2.01,2.01
		C539,440.63,539.9,441.54,541.01,441.54"/>
	<path class="st0" d="M552.59,435.5c1.11,0,2.01-0.9,2.01-2.01s-0.9-2.01-2.01-2.01c-1.11,0-2.01,0.9-2.01,2.01
		S551.48,435.5,552.59,435.5"/>
	<path class="st0" d="M550.89,440.26c1.11,0,2.01-0.9,2.01-2.01c0-1.11-0.9-2.01-2.01-2.01c-1.11,0-2.01,0.9-2.01,2.01
		C548.87,439.35,549.78,440.26,550.89,440.26"/>
	<path class="st0" d="M548.81,437.76c1.11,0,2.01-0.9,2.01-2.01s-0.9-2.01-2.01-2.01c-1.11,0-2.01,0.9-2.01,2.01
		S547.7,437.76,548.81,437.76"/>
	<path class="st0" d="M551.98,437.39c1.11,0,2.01-0.9,2.01-2.01s-0.9-2.01-2.01-2.01c-1.11,0-2.01,0.9-2.01,2.01
		S550.87,437.39,551.98,437.39"/>
	<path class="st0" d="M557.47,433.12c1.11,0,2.01-0.9,2.01-2.01s-0.9-2.01-2.01-2.01c-1.11,0-2.01,0.9-2.01,2.01
		S556.36,433.12,557.47,433.12"/>
	<path class="st0" d="M556.13,438.18c1.11,0,2.01-0.9,2.01-2.01c0-1.11-0.9-2.01-2.01-2.01c-1.11,0-2.01,0.9-2.01,2.01
		C554.12,437.28,555.02,438.18,556.13,438.18"/>
	<path class="st0" d="M559.54,428.37c1.11,0,2.01-0.9,2.01-2.01c0-1.11-0.9-2.01-2.01-2.01c-1.11,0-2.01,0.9-2.01,2.01
		C557.53,427.47,558.43,428.37,559.54,428.37"/>
	<path class="st0" d="M558.08,422.76c1.11,0,2.01-0.9,2.01-2.01s-0.9-2.01-2.01-2.01c-1.11,0-2.01,0.9-2.01,2.01
		S556.97,422.76,558.08,422.76"/>
	<path class="st0" d="M546.31,442.82c1.11,0,2.01-0.9,2.01-2.01c0-1.11-0.9-2.01-2.01-2.01c-1.11,0-2.01,0.9-2.01,2.01
		C544.3,441.92,545.2,442.82,546.31,442.82"/>
	<path class="st0" d="M524.31,437.51c1.11,0,2.01-0.9,2.01-2.01s-0.9-2.01-2.01-2.01c-1.11,0-2.01,0.9-2.01,2.01
		S523.2,437.51,524.31,437.51"/>
	<path class="st0" d="M676.52,428.92c0.55,0,1.01-0.45,1.01-1.01c0-0.55-0.45-1.01-1.01-1.01c-0.56,0-1.01,0.45-1.01,1.01
		C675.51,428.47,675.96,428.92,676.52,428.92"/>
	<path class="st0" d="M662.96,418.19c0.56,0,1.01-0.45,1.01-1.01c0-0.55-0.45-1.01-1.01-1.01c-0.56,0-1.01,0.45-1.01,1.01
		C661.96,417.74,662.41,418.19,662.96,418.19"/>
	<path class="st0" d="M689.97,383.75c0.55,0,1.01-0.45,1.01-1.01c0-0.55-0.45-1.01-1.01-1.01c-0.56,0-1.01,0.45-1.01,1.01
		C688.96,383.3,689.41,383.75,689.97,383.75"/>
	<g class="st1">
		<text transform="matrix(1 0 0 1 517.1456 465.1353)"><tspan x="0" y="0" class="st2 st3 st4 st5">W</tspan><tspan x="16.03" y="0" class="st2 st3 st4 st5">E </tspan><tspan x="34.2" y="0" class="st2 st3 st4 st5">A</tspan><tspan x="46.69" y="0" class="st2 st3 st4 st6">L</tspan><tspan x="56.21" y="0" class="st2 st3 st4 st5">W</tspan><tspan x="72.02" y="0" class="st2 st3 st4 st6">A</tspan><tspan x="83.96" y="0" class="st2 st3 st4 st6">Y</tspan><tspan x="94.45" y="0" class="st2 st3 st4 st5">S</tspan><tspan x="105.64" y="0" class="st2 st3 st4 st5"> </tspan><tspan x="112.62" y="0" class="st2 st3 st4 st5">D</tspan><tspan x="125.94" y="0" class="st2 st3 st4 st5">E</tspan><tspan x="137.28" y="0" class="st2 st3 st4 st7">L</tspan><tspan x="149.19" y="0" class="st2 st3 st4 st5">I</tspan><tspan x="156.71" y="0" class="st2 st3 st4 st5">V</tspan><tspan x="168.4" y="0" class="st2 st3 st4 st5">E</tspan><tspan x="179.1" y="0" class="st2 st3 st4">R</tspan></text>
	</g>
	<path class="st0" d="M490.08,287.68c-26,35.62-68.08,58.77-115.56,58.77c-78.96,0-142.97-64.01-142.97-142.97
		c0-78.96,64.01-142.97,142.97-142.97c78.96,0,142.97,64.01,142.97,142.97C517.49,234.95,507.32,264.06,490.08,287.68"/>
	<path class="st0" d="M328.36,334.95c-33.02,45.24-86.46,74.63-146.76,74.63c-100.28,0-181.57-81.29-181.57-181.57
		S81.33,46.44,181.61,46.44s181.57,81.29,181.57,181.57C363.18,267.99,350.26,304.95,328.36,334.95"/>
	<path class="st8" d="M472.09,194.48c52.15,4.56,98.12-34.01,102.68-86.16c4.56-52.15-34.01-98.12-86.16-102.68
		c-52.15-4.56-98.12,34.01-102.68,86.16C381.37,143.95,419.94,189.92,472.09,194.48"/>
	<path class="st8" d="M601.7,210.65c46.88,4.1,88.22-30.58,92.32-77.47c4.1-46.89-30.58-88.22-77.47-92.32
		c-46.88-4.1-88.22,30.58-92.32,77.47C520.13,165.22,554.81,206.55,601.7,210.65"/>
	<path class="st8" d="M585.83,82.34c22.79,1.99,42.87-14.86,44.87-37.65c1.99-22.79-14.86-42.88-37.65-44.87
		c-22.79-1.99-42.87,14.86-44.87,37.65C546.18,60.26,563.04,80.35,585.83,82.34"/>
	<path class="st8" d="M684.47,130.11c15.72,1.38,29.58-10.25,30.96-25.98c1.38-15.72-10.26-29.58-25.98-30.96
		c-15.72-1.38-29.58,10.25-30.96,25.98C657.11,114.88,668.74,128.74,684.47,130.11"/>
	<path class="st8" d="M701.24,46.44c6.13,0.54,11.53-4,12.06-10.12c0.54-6.13-4-11.53-10.12-12.06c-6.13-0.54-11.53,4-12.06,10.12
		C690.58,40.5,695.11,45.9,701.24,46.44"/>
</g>
</svg>
