<?xml version="1.0" encoding="utf-8"?>
<!-- Generator: Adobe Illustrator 25.2.1, SVG Export Plug-In . SVG Version: 6.00 Build 0)  -->
<svg version="1.1" id="Layer_1" xmlns="http://www.w3.org/2000/svg" xmlns:xlink="http://www.w3.org/1999/xlink" x="0px" y="0px"
	 viewBox="0 0 696 163" style="enable-background:new 0 0 696 163;" xml:space="preserve">
<style type="text/css">
	.st0{fill:#247F5D;}
	.st1{fill:#FFFFFF;}
</style>
<polygon class="st0" points="506.98,0.44 0.05,117.79 0.05,162.58 695.95,0.44 "/>
<polygon class="st1" points="41.72,108.15 26.41,156.45 55.55,149.65 70.77,101.35 "/>
<polygon class="st1" points="99.06,94.86 83.67,143.16 112.58,136.36 128.03,88.17 "/>
<polygon class="st1" points="156.07,81.68 140.79,129.78 169.7,123.03 185.15,74.9 "/>
<polygon class="st1" points="507.17,0.44 494.98,3.27 479.9,50.84 508.92,44.03 522.73,0.44 "/>
<polygon class="st1" points="548.56,0.44 536.79,37.51 565.5,30.82 575.36,0.44 "/>
<polygon class="st1" points="649.04,11.35 677.95,4.63 679.26,0.54 652.58,0.44 "/>
<polygon class="st1" points="0.05,117.79 0.05,162.58 13.8,114.53 "/>
<polygon class="st1" points="601.26,0.42 593.68,24.25 622.59,17.56 628.08,0.44 "/>
</svg>
